<svg viewBox="0 0 512 512" xmlns="http://www.w3.org/2000/svg"><path d="m502 334.660156c-2.628906 0-5.210938 1.070313-7.070312 2.929688-1.859376 1.859375-2.929688 4.429687-2.929688 7.070312 0 2.628906 1.070312 5.210938 2.929688 7.070313 1.859374 1.859375 4.441406 2.929687 7.070312 2.929687s5.210938-1.070312 7.070312-2.929687c1.859376-1.871094 2.929688-4.441407 2.929688-7.070313s-1.070312-5.210937-2.929688-7.070312c-1.859374-1.859375-4.441406-2.929688-7.070312-2.929688zm0 0"/><path d="m462 0h-412c-27.570312 0-50 22.429688-50 50v59.792969c0 5.523437 4.476562 10 10 10s10-4.476563 10-10v-59.792969c0-16.542969 13.457031-30 30-30h412c16.542969 0 30 13.457031 30 30v256.507812c0 5.523438 4.476562 10 10 10s10-4.476562 10-10v-256.507812c0-27.570312-22.429688-50-50-50zm0 0"/><path d="m10 160.578125c2.628906 0 5.210938-1.058594 7.070312-2.929687 1.859376-1.859376 2.929688-4.4375 2.929688-7.070313 0-2.628906-1.070312-5.207031-2.929688-7.066406-1.859374-1.863281-4.441406-2.933594-7.070312-2.933594s-5.210938 1.070313-7.070312 2.933594c-1.859376 1.859375-2.929688 4.4375-2.929688 7.066406 0 2.640625 1.070312 5.210937 2.929688 7.070313 1.859374 1.871093 4.441406 2.929687 7.070312 2.929687zm0 0"/><path d="m502 368.460938c-5.523438 0-10 4.476562-10 10v83.539062c0 16.542969-13.457031 30-30 30h-412c-16.542969 0-30-13.457031-30-30v-274.332031c0-5.523438-4.476562-10-10-10s-10 4.476562-10 10v274.332031c0 27.570312 22.429688 50 50 50h412c27.570312 0 50-22.429688 50-50v-83.539062c0-5.523438-4.476562-10-10-10zm0 0"/><path d="m78.722656 140.863281c1.953125 1.953125 4.511719 2.929688 7.070313 2.929688 2.558593 0 5.117187-.976563 7.070312-2.929688l16.929688-16.925781 16.929687 16.925781c1.953125 1.953125 4.511719 2.929688 7.070313 2.929688 2.558593 0 5.117187-.976563 7.070312-2.929688 3.90625-3.902343 3.90625-10.234375 0-14.140625l-16.925781-16.929687 16.925781-16.929688c3.90625-3.902343 3.90625-10.234375 0-14.140625-3.902343-3.90625-10.234375-3.90625-14.140625 0l-16.929687 16.925782-16.929688-16.925782c-3.902343-3.902344-10.234375-3.902344-14.140625 0-3.90625 3.90625-3.90625 10.238282 0 14.144532l16.929688 16.929687-16.929688 16.925781c-3.90625 3.90625-3.90625 10.238282 0 14.140625zm0 0"/><path d="m225.054688 140.863281c1.953124 1.953125 4.511718 2.929688 7.074218 2.929688 2.558594 0 5.117188-.976563 7.070313-2.929688l16.929687-16.925781 16.925782 16.925781c1.953124 1.953125 4.511718 2.929688 7.074218 2.929688 2.558594 0 5.117188-.976563 7.070313-2.929688 3.902343-3.902343 3.902343-10.234375 0-14.140625l-16.929688-16.929687 16.929688-16.929688c3.902343-3.902343 3.902343-10.234375 0-14.140625-3.90625-3.90625-10.238281-3.90625-14.144531 0l-16.929688 16.925782-16.929688-16.925782c-3.90625-3.90625-10.234374-3.90625-14.140624 0-3.90625 3.902344-3.90625 10.234375 0 14.140625l16.929687 16.929688-16.929687 16.929687c-3.90625 3.90625-3.90625 10.238282 0 14.140625zm0 0"/><path d="m78.722656 287.199219c1.953125 1.949219 4.511719 2.929687 7.070313 2.929687 2.558593 0 5.117187-.980468 7.070312-2.929687l16.929688-16.929688 16.929687 16.929688c1.953125 1.949219 4.511719 2.929687 7.070313 2.929687 2.558593 0 5.117187-.980468 7.070312-2.929687 3.90625-3.90625 3.90625-10.238281 0-14.144531l-16.925781-16.929688 16.925781-16.929688c3.90625-3.902343 3.90625-10.234374 0-14.140624-3.902343-3.90625-10.234375-3.90625-14.140625 0l-16.929687 16.929687-16.929688-16.929687c-3.90625-3.90625-10.234375-3.90625-14.140625 0s-3.90625 10.234374 0 14.140624l16.925782 16.929688-16.925782 16.929688c-3.90625 3.90625-3.90625 10.238281 0 14.144531zm0 0"/><path d="m225.054688 287.199219c1.953124 1.949219 4.511718 2.929687 7.074218 2.929687 2.558594 0 5.117188-.980468 7.070313-2.929687l16.929687-16.929688 16.925782 16.929688c1.953124 1.949219 4.511718 2.929687 7.074218 2.929687 2.558594 0 5.117188-.980468 7.070313-2.929687 3.902343-3.90625 3.902343-10.238281 0-14.144531l-16.929688-16.929688 16.929688-16.929688c3.902343-3.902343 3.902343-10.234374 0-14.140624-3.90625-3.90625-10.238281-3.90625-14.144531 0l-16.929688 16.929687-16.929688-16.929687c-3.90625-3.90625-10.234374-3.90625-14.140624 0s-3.90625 10.234374 0 14.140624l16.929687 16.929688-16.929687 16.929688c-3.90625 3.90625-3.90625 10.238281 0 14.144531zm0 0"/><path d="m78.722656 433.53125c1.953125 1.953125 4.511719 2.929688 7.070313 2.929688 2.558593 0 5.117187-.976563 7.070312-2.929688l16.929688-16.929688 16.929687 16.929688c1.953125 1.953125 4.511719 2.929688 7.070313 2.929688 2.558593 0 5.117187-.976563 7.070312-2.929688 3.90625-3.90625 3.90625-10.238281 0-14.144531l-16.925781-16.925781 16.925781-16.929688c3.90625-3.90625 3.90625-10.238281 0-14.144531-3.902343-3.902344-10.234375-3.902344-14.140625 0l-16.929687 16.929687-16.929688-16.929687c-3.90625-3.902344-10.234375-3.902344-14.140625 0-3.90625 3.90625-3.90625 10.238281 0 14.144531l16.925782 16.929688-16.925782 16.925781c-3.90625 3.90625-3.90625 10.238281 0 14.144531zm0 0"/><path d="m188.777344 467.496094c1.945312 1.945312 4.503906 2.929687 7.074218 2.929687 2.269532 0 4.542969-.765625 6.402344-2.320312l258.265625-215.417969c8.695313-7.253906 13.976563-17.902344 14.488281-29.214844.507813-11.316406-3.789062-22.398437-11.796874-30.40625-8.011719-8.003906-19.097657-12.308594-30.402344-11.796875-1.082032.050781-2.152344.15625-3.21875.289063v-12.070313c0-25.195312-20.496094-45.691406-45.691406-45.691406-13.730469 0-24.898438-11.171875-24.898438-24.898437 0-13.730469 11.167969-24.898438 24.898438-24.898438h64.101562c5.523438 0 10-4.476562 10-10s-4.476562-10-10-10h-64.101562c-24.757813 0-44.898438 20.140625-44.898438 44.898438 0 24.753906 20.140625 44.894531 44.898438 44.894531 14.164062 0 25.691406 11.527343 25.691406 25.691406v20.441406c-2.183594 1.71875-4.195313 3.667969-6 5.832031l-215.417969 258.261719c-3.316406 3.972657-3.050781 9.820313.605469 13.476563zm220.8125-247.707032v12.753907l-5.050782 5.054687c-3.90625 3.902344-3.90625 10.234375 0 14.140625 1.953126 1.953125 4.511719 2.929688 7.070313 2.929688s5.117187-.976563 7.070313-2.929688l15.960937-15.960937c3.90625-3.902344 3.90625-10.234375 0-14.140625-1.4375-1.4375-3.199219-2.339844-5.050781-2.71875v-17.0625c1.332031-.335938 2.707031-.542969 4.117187-.605469.320313-.015625.640625-.019531.960938-.019531 5.4375 0 10.519531 2.101562 14.398437 5.980469 4.105469 4.101562 6.222656 9.558593 5.960938 15.359374-.261719 5.796876-2.863282 11.039063-7.320313 14.757813l-173.359375 144.601563zm0 0"/></svg>