<?xml version="1.0" encoding="iso-8859-1"?>
<!-- Generator: Adobe Illustrator 16.0.0, SVG Export Plug-In . SVG Version: 6.00 Build 0)  -->
<!DOCTYPE svg PUBLIC "-//W3C//DTD SVG 1.1//EN" "http://www.w3.org/Graphics/SVG/1.1/DTD/svg11.dtd">
<svg version="1.1" id="Capa_1" xmlns="http://www.w3.org/2000/svg" xmlns:xlink="http://www.w3.org/1999/xlink" x="0px" y="0px"
	 width="274.227px" height="274.228px" viewBox="0 0 274.227 274.228" style="enable-background:new 0 0 274.227 274.228;"
	 xml:space="preserve">
<g>
	<g>
		<path d="M262.353,170.603c-0.792-2.288-19.578-56.177-45.5-69.878c-1.554-0.818-3.18-1.652-4.847-2.501
			c7.783-26.139,10.299-47.996,5.188-66.953c-4.981-18.491-22.059-32.213-38.856-31.219c-14.794,0.865-25.295,12.718-28.097,31.701
			c-0.88,5.965-0.834,11.387-0.171,16.43c-3.469,4.836-5.841,9.036-6.543,10.325L13.143,266.149
			c-0.997,1.579-2.231,3.547-0.955,5.872l1.229,2.206h2.509c2.201,0,3.379-1.476,4.513-2.895L170.42,83.093
			c9.569,8.114,21.034,14.245,31.375,19.49c-4.635,14.333-10.776,30.049-18.046,47.328c-19.957,47.483-10.657,86.687,3.401,95.64
			c0.705,0.451,1.492,0.663,2.279,0.663c1.402,0,2.77-0.694,3.583-1.968c1.248-1.973,0.673-4.604-1.305-5.852
			c-9.896-6.302-18.662-41.109-0.135-85.19c7.13-16.953,13.204-32.467,17.875-46.753c1.186,0.605,2.34,1.201,3.453,1.786
			c22.96,12.138,41.26,64.612,41.436,65.136c0.767,2.217,3.18,3.392,5.396,2.631C261.934,175.227,263.115,172.814,262.353,170.603z
			 M153.986,80.063l-8.353,6.902l3.299-10.325c0.973-3.024,2.791-8.383,5.203-14.131c1.885,4.085,4.272,7.819,7.048,11.236
			C157.973,76.713,155.27,79.002,153.986,80.063z M167.345,67.781c-3.671-4.722-6.426-10.077-7.954-16.181
			c4.106-7.322,9.021-13.241,14.209-13.241c1.435,0,2.817,0.409,4.096,1.222c2.123,1.341,3.319,3.365,3.48,5.851
			C181.564,51.579,174.481,60.464,167.345,67.781z M204.333,94.345c-9.823-5.007-20.164-10.651-28.589-17.891
			c5.634-7.28,16.669-23.229,15.198-34.932c-0.513-4.096-2.517-7.482-5.789-9.792c-2.714-1.9-5.686-2.874-8.839-2.874
			c-6.551,0-12.868,4.339-18.201,9.704c0.083-1.802,0.232-3.646,0.518-5.571c2.2-14.934,9.569-23.855,20.205-24.477
			c0.378-0.021,0.771-0.037,1.16-0.037c11.143,0,24.72,9.088,29.013,24.995C213.57,50.414,211.343,70.354,204.333,94.345z"/>
	</g>
</g>
<g>
</g>
<g>
</g>
<g>
</g>
<g>
</g>
<g>
</g>
<g>
</g>
<g>
</g>
<g>
</g>
<g>
</g>
<g>
</g>
<g>
</g>
<g>
</g>
<g>
</g>
<g>
</g>
<g>
</g>
</svg>
