<svg viewBox="0 0 511.99836 511" xmlns="http://www.w3.org/2000/svg"><path d="m479.183594 33.3125c-14.597656-14.597656-32.550782-24.640625-51.960938-29.488281-.039062-.007813-.078125-.015625-.117187-.027344-12.660157-3.144531-25.933594-4.089844-39.308594-2.625-33.9375 3.714844-63.925781 22.359375-82.269531 51.152344l-68.996094 108.28125-76.421875 76.421875-108.28125 68.996094c-28.792969 18.347656-47.4375 48.332031-51.152344 82.269531-3.714843 33.9375 8 67.246093 32.140625 91.386719 21.199219 21.199218 49.46875 32.816406 79.027344 32.816406 4.097656 0 8.226562-.222656 12.359375-.675782 33.9375-3.714843 63.921875-22.359374 82.269531-51.152343l68.996094-108.28125 76.421875-76.421875 108.28125-68.996094c28.789063-18.34375 47.433594-48.332031 51.148437-82.269531 3.714844-33.9375-7.996093-67.246094-32.136718-91.386719zm-94.925782 75.773438c-5.382812-31.496094 7.0625-63.519532 32.613282-83.046876 4.164062 31.492188-8.1875 62.886719-32.613282 83.046876zm5.714844-88.03125c.933594-.101563 1.867188-.1875 2.800782-.261719-25.351563 26.269531-35.734376 64.203125-26.332032 100.476562l-17.71875 11.289063c-14.621094-36-7.042968-77.535156 20.179688-106.046875.269531-.285157.515625-.582031.746094-.886719 6.503906-2.257812 13.308593-3.804688 20.324218-4.570312zm-67.578125 42.015624c1.890625-2.972656 3.9375-5.8125 6.125-8.515624-10.28125 28.441406-9.554687 60.277343 3.101563 88.902343l-26.207032 16.699219c-9.523437-24.519531-8.414062-52.125 3.398438-75.769531zm-54.773437 268.878907-19.6875-19.691407c-.007813-.007812-.015625-.015624-.027344-.023437l-37.140625-37.144531c-.011719-.011719-.023437-.019532-.035156-.035156l-30.183594-30.179688 30.671875-30.671875 36.371094 36.371094c1.953125 1.953125 4.511718 2.929687 7.070312 2.929687s5.121094-.976562 7.070313-2.929687c3.90625-3.90625 3.90625-10.238281 0-14.140625l-36.367188-36.371094 19.015625-19.015625 87.074219 87.074219zm-141.457032 48.414062c-35.644531 22.710938-55.023437 63.101563-51.410156 104.285157-2.277344-1.011719-4.511718-2.117188-6.703125-3.3125-.144531-.375-.300781-.746094-.492187-1.109376-21.929688-41.910156-7.789063-94.695312 32.183594-120.164062l102.4375-65.273438 22.683593 22.6875zm-31.035156 106.589844c-4.164062-31.488281 8.183594-62.882813 32.613282-83.046875 5.382812 31.496094-7.0625 63.519531-32.613282 83.046875zm144.21875-154.992187 15.527344 15.523437-22.011719 34.546875c-.585937-13.683594-3.640625-27.289062-9.140625-40.113281zm17.777344-166.453126 22.007812-34.542968c.589844 13.679687 3.644532 27.285156 9.144532 40.109375l-15.628906 9.960937zm-236.566406 224.960938c3.050781-27.875 18.363281-52.507812 42.015625-67.578125l102.4375-65.269531 22.683593 22.683594-98.699218 62.890624c-24.082032 15.34375-41.234375 38.976563-48.289063 66.539063-3.921875 15.308594-4.570312 31.054687-2.058593 46.28125-14.144532-18.625-20.679688-41.898437-18.089844-65.546875zm101.46875 101.46875c-.933594.105469-1.867188.191406-2.800782.265625 25.347657-26.269531 35.730469-64.207031 26.328126-100.480469l17.71875-11.289062c14.621093 36.003906 7.042968 77.539062-20.175782 106.046875-.273437.285156-.519531.582031-.75.890625-6.503906 2.253906-13.308594 3.800781-20.320312 4.566406zm67.578125-42.015625c-1.894531 2.972656-3.941407 5.8125-6.125 8.515625 10.277343-28.441406 9.550781-60.277344-3.105469-88.902344l26.210938-16.699218c9.519531 24.519531 8.410156 52.121093-3.398438 75.769531zm301.835937-327.398437c-3.050781 27.878906-18.367187 52.507812-42.015625 67.578124l-102.4375 65.269532-59.855469-59.851563 98.699219-62.890625c35.644531-22.710937 55.027344-63.097656 51.414063-104.28125 2.273437 1.007813 4.507812 2.113282 6.703125 3.308594.140625.375.296875.746094.488281 1.109375 21.929688 41.910156 7.792969 94.695313-32.183594 120.167969l-44.597656 28.414062c-4.65625 2.96875-6.027344 9.152344-3.058594 13.808594 1.90625 2.992188 5.136719 4.628906 8.441406 4.628906 1.835938 0 3.699219-.507812 5.363282-1.570312l44.597656-28.417969c24.085938-15.34375 41.238281-38.976563 48.292969-66.539063 3.921875-15.308593 4.566406-31.050781 2.058593-46.277343 14.144532 18.621093 20.679688 41.894531 18.089844 65.542969zm0 0"/><path d="m343.277344 198.746094c-2.640625 0-5.210938 1.0625-7.070313 2.921875s-2.929687 4.4375-2.929687 7.078125c0 2.628906 1.070312 5.210937 2.929687 7.070312s4.441407 2.929688 7.070313 2.929688 5.210937-1.070313 7.070312-2.929688 2.929688-4.441406 2.929688-7.070312c0-2.640625-1.070313-5.21875-2.929688-7.078125s-4.441406-2.921875-7.070312-2.921875zm0 0"/><path d="m286.949219 261.65625c-1.859375-1.859375-4.441407-2.929688-7.070313-2.929688s-5.210937 1.070313-7.070312 2.929688-2.929688 4.441406-2.929688 7.070312c0 2.628907 1.070313 5.210938 2.929688 7.070313s4.441406 2.929687 7.070312 2.929687 5.210938-1.070312 7.070313-2.929687c1.871093-1.859375 2.929687-4.441406 2.929687-7.070313 0-2.628906-1.058594-5.210937-2.929687-7.070312zm0 0"/></svg>